<?xml version="1.0" encoding="utf-8"?><svg xmlns="http://www.w3.org/2000/svg" xmlns:xlink="http://www.w3.org/1999/xlink"><symbol viewBox="0 0 21 20" id="basket" xmlns="http://www.w3.org/2000/svg">
    <path d="M7.54548 18.1818C7.99735 18.1818 8.36366 17.8155 8.36366 17.3636C8.36366 16.9117 7.99735 16.5454 7.54548 16.5454C7.09361 16.5454 6.72729 16.9117 6.72729 17.3636C6.72729 17.8155 7.09361 18.1818 7.54548 18.1818Z" style="stroke:black;stroke-opacity:1" stroke-width="2" stroke-linecap="round" stroke-linejoin="round"/>
    <path d="M16.5455 18.1818C16.9973 18.1818 17.3637 17.8155 17.3637 17.3636C17.3637 16.9117 16.9973 16.5454 16.5455 16.5454C16.0936 16.5454 15.7273 16.9117 15.7273 17.3636C15.7273 17.8155 16.0936 18.1818 16.5455 18.1818Z" style="stroke:black;stroke-opacity:1" stroke-width="2" stroke-linecap="round" stroke-linejoin="round"/>
    <path d="M1 1H4.27273L6.46545 11.9555C6.54027 12.3321 6.7452 12.6705 7.04436 12.9113C7.34351 13.1522 7.71784 13.2801 8.10182 13.2727H16.0545C16.4385 13.2801 16.8129 13.1522 17.112 12.9113C17.4112 12.6705 17.6161 12.3321 17.6909 11.9555L19 5.09091H8.5" style="stroke:black;stroke-opacity:1" stroke-width="2" stroke-linecap="round" stroke-linejoin="round"/>
    <path d="M18.8182 5.63636C19.2701 5.63636 19.6364 5.27005 19.6364 4.81818C19.6364 4.36631 19.2701 4 18.8182 4C18.3663 4 18 4.36631 18 4.81818C18 5.27005 18.3663 5.63636 18.8182 5.63636Z" style="stroke:color(display-p3 0.8863 0.4824 0.2275);stroke-opacity:1" stroke-width="2" stroke-linecap="round" stroke-linejoin="round"/>
</symbol><symbol viewBox="0 0 19 19" id="search" xmlns="http://www.w3.org/2000/svg">
    <path d="M8.55555 16.1111C12.7284 16.1111 16.1111 12.7284 16.1111 8.55555C16.1111 4.38273 12.7284 1 8.55555 1C4.38273 1 1 4.38273 1 8.55555C1 12.7284 4.38273 16.1111 8.55555 16.1111Z" style="stroke:black;stroke-opacity:1" stroke-width="2" stroke-linecap="round" stroke-linejoin="round"/>
    <path d="M18 17.9999L13.8917 13.8916" style="stroke:black;stroke-opacity:1" stroke-width="2" stroke-linecap="round" stroke-linejoin="round"/>
</symbol><symbol viewBox="0 0 24 24" id="user" xmlns="http://www.w3.org/2000/svg">
    <path d="M18.5588 19.5488C17.5654 16.8918 15.0036 15 12 15C8.99638 15 6.4346 16.8918 5.44117 19.5488M18.5588 19.5488C20.6672 17.7154 22 15.0134 22 12C22 6.47715 17.5228 2 12 2C6.47715 2 2 6.47715 2 12C2 15.0134 3.33285 17.7154 5.44117 19.5488M18.5588 19.5488C16.8031 21.0756 14.5095 22 12 22C9.49052 22 7.19694 21.0756 5.44117 19.5488M15 9C15 10.6569 13.6569 12 12 12C10.3431 12 9 10.6569 9 9C9 7.34315 10.3431 6 12 6C13.6569 6 15 7.34315 15 9Z" stroke-width="1.5" stroke-linejoin="round"/>
</symbol></svg>