<?xml version="1.0" encoding="utf-8"?><svg xmlns="http://www.w3.org/2000/svg" xmlns:xlink="http://www.w3.org/1999/xlink"><symbol viewBox="0 0 17 27" id="arrow_down" xmlns="http://www.w3.org/2000/svg">
    <path d="M8.38889 2.00024L8.38889 25.6114" style="stroke:black;stroke-opacity:1" stroke-width="2.3" stroke-linecap="round" stroke-linejoin="round"/>
    <path d="M15 19.0002L8.38888 25.6114L1.77777 19.0002" style="stroke:black;stroke-opacity:1" stroke-width="2.3" stroke-linecap="round" stroke-linejoin="round"/>
</symbol><symbol viewBox="0 0 17 27" id="arrow_up" xmlns="http://www.w3.org/2000/svg">
    <path d="M8.38889 25.6113L8.38889 2.00022" style="stroke:black;stroke-opacity:1" stroke-width="2.3" stroke-linecap="round" stroke-linejoin="round"/>
    <path d="M1.77778 8.61133L8.38889 2.00022L15 8.61133" style="stroke:black;stroke-opacity:1" stroke-width="2.3" stroke-linecap="round" stroke-linejoin="round"/>
</symbol><symbol viewBox="0 0 21 20" id="basket" xmlns="http://www.w3.org/2000/svg">
    <path d="M7.54548 18.1818C7.99735 18.1818 8.36366 17.8155 8.36366 17.3636C8.36366 16.9117 7.99735 16.5454 7.54548 16.5454C7.09361 16.5454 6.72729 16.9117 6.72729 17.3636C6.72729 17.8155 7.09361 18.1818 7.54548 18.1818Z" style="stroke:black;stroke-opacity:1" stroke-width="2" stroke-linecap="round" stroke-linejoin="round"/>
    <path d="M16.5455 18.1818C16.9973 18.1818 17.3637 17.8155 17.3637 17.3636C17.3637 16.9117 16.9973 16.5454 16.5455 16.5454C16.0936 16.5454 15.7273 16.9117 15.7273 17.3636C15.7273 17.8155 16.0936 18.1818 16.5455 18.1818Z" style="stroke:black;stroke-opacity:1" stroke-width="2" stroke-linecap="round" stroke-linejoin="round"/>
    <path d="M1 1H4.27273L6.46545 11.9555C6.54027 12.3321 6.7452 12.6705 7.04436 12.9113C7.34351 13.1522 7.71784 13.2801 8.10182 13.2727H16.0545C16.4385 13.2801 16.8129 13.1522 17.112 12.9113C17.4112 12.6705 17.6161 12.3321 17.6909 11.9555L19 5.09091H8.5" style="stroke:black;stroke-opacity:1" stroke-width="2" stroke-linecap="round" stroke-linejoin="round"/>
    <path d="M18.8182 5.63636C19.2701 5.63636 19.6364 5.27005 19.6364 4.81818C19.6364 4.36631 19.2701 4 18.8182 4C18.3663 4 18 4.36631 18 4.81818C18 5.27005 18.3663 5.63636 18.8182 5.63636Z" style="stroke:color(display-p3 0.8863 0.4824 0.2275);stroke-opacity:1" stroke-width="2" stroke-linecap="round" stroke-linejoin="round"/>
</symbol><symbol viewBox="0 0 16 17" id="dreeeble" xmlns="http://www.w3.org/2000/svg">
    <path d="M10.9133 15.9442C10.9267 15.9402 10.9394 15.9349 10.9527 15.9302C19.104 12.6954 16.8491 0.5 8.00783 0.5C3.57082 0.5 0 4.11276 0 8.49872C0 14.0492 5.62817 18.0099 10.9133 15.9442ZM3.52411 13.8705C4.09267 12.916 5.93247 10.2231 9.07287 9.29393C9.72951 10.9663 10.19 12.9173 10.2353 15.1297C7.85568 15.9289 5.34589 15.391 3.52411 13.8705ZM11.2196 14.7124C11.1322 12.5867 10.6978 10.7017 10.0785 9.06863C11.4679 8.852 13.0761 8.99664 14.8999 9.72653C14.5122 11.9002 13.1208 13.7272 11.2196 14.7124ZM15.0047 8.69269C12.996 7.93881 11.2256 7.84483 9.69348 8.13678C9.45658 7.60353 9.20767 7.09095 8.94408 6.61902C11.295 5.68117 12.6844 4.53802 13.3063 3.93278C14.4041 5.20191 15.0561 6.84499 15.0047 8.69269ZM12.5956 3.2209C12.0298 3.75881 10.6971 4.84531 8.41823 5.73383C7.30114 3.96878 6.10664 2.72364 5.3499 2.02642C7.77093 1.03058 10.563 1.45585 12.5956 3.2209ZM4.39296 2.51501C4.96419 3.01693 6.21808 4.22207 7.42793 6.08577C5.7663 6.62036 3.68293 7.01296 1.14912 7.06828C1.55218 5.13926 2.75603 3.50485 4.39296 2.51501ZM1.02233 8.07212C3.85844 8.02613 6.15402 7.57887 7.96846 6.97363C8.21937 7.41289 8.4576 7.89149 8.68649 8.38874C5.52674 9.39391 3.55214 11.9888 2.79607 13.1606C1.57621 11.8009 0.90355 10.0265 1.02233 8.07212Z" style="fill:color(display-p3 0.1294 0.0667 0.0196);fill-opacity:1"/>
</symbol><symbol viewBox="0 0 9 18" id="facebook" xmlns="http://www.w3.org/2000/svg">
    <path d="M7.35689 3.32271H9V0.619708C8.71652 0.582875 7.74161 0.5 6.6062 0.5C4.23715 0.5 2.61428 1.90746 2.61428 4.49429V6.875H0V9.89675H2.61428V17.5H5.81952V9.89746H8.32806L8.72627 6.87571H5.81877V4.79392C5.81952 3.92054 6.06849 3.32271 7.35689 3.32271Z" style="fill:color(display-p3 0.1294 0.0667 0.0196);fill-opacity:1"/>
</symbol><symbol viewBox="0 0 19 19" id="search" xmlns="http://www.w3.org/2000/svg">
    <path d="M8.55555 16.1111C12.7284 16.1111 16.1111 12.7284 16.1111 8.55555C16.1111 4.38273 12.7284 1 8.55555 1C4.38273 1 1 4.38273 1 8.55555C1 12.7284 4.38273 16.1111 8.55555 16.1111Z" style="stroke:black;stroke-opacity:1" stroke-width="2" stroke-linecap="round" stroke-linejoin="round"/>
    <path d="M18 17.9999L13.8917 13.8916" style="stroke:black;stroke-opacity:1" stroke-width="2" stroke-linecap="round" stroke-linejoin="round"/>
</symbol><symbol viewBox="0 0 15 13" id="twitter" xmlns="http://www.w3.org/2000/svg">
    <path d="M14.7692 1.92062C14.22 2.16154 13.6348 2.32123 13.0246 2.39877C13.6523 2.024 14.1314 1.43508 14.3566 0.725231C13.7714 1.07415 13.1252 1.32062 12.4366 1.45815C11.8809 0.866462 11.0889 0.5 10.2249 0.5C8.54862 0.5 7.19908 1.86062 7.19908 3.52862C7.19908 3.76862 7.21938 3.99938 7.26923 4.21908C4.752 4.09631 2.52462 2.88985 1.02831 1.052C0.767077 1.50523 0.613846 2.024 0.613846 2.58246C0.613846 3.63108 1.15385 4.56062 1.95877 5.09877C1.47231 5.08954 0.995077 4.94831 0.590769 4.72585C0.590769 4.73508 0.590769 4.74708 0.590769 4.75908C0.590769 6.23046 1.64031 7.45262 3.01662 7.73415C2.77015 7.80154 2.50154 7.83385 2.22277 7.83385C2.02892 7.83385 1.83323 7.82277 1.64954 7.78215C2.04185 8.98123 3.15508 9.86277 4.47877 9.89138C3.44862 10.6972 2.14062 11.1828 0.724615 11.1828C0.476308 11.1828 0.238154 11.1717 0 11.1412C1.34123 12.0062 2.93077 12.5 4.64492 12.5C10.2166 12.5 13.2628 7.88462 13.2628 3.884C13.2628 3.75015 13.2582 3.62092 13.2517 3.49262C13.8526 3.06615 14.3575 2.53354 14.7692 1.92062Z" style="fill:color(display-p3 0.1294 0.0667 0.0196);fill-opacity:1"/>
</symbol><symbol viewBox="0 0 24 24" id="user" xmlns="http://www.w3.org/2000/svg">
    <path d="M18.5588 19.5488C17.5654 16.8918 15.0036 15 12 15C8.99638 15 6.4346 16.8918 5.44117 19.5488M18.5588 19.5488C20.6672 17.7154 22 15.0134 22 12C22 6.47715 17.5228 2 12 2C6.47715 2 2 6.47715 2 12C2 15.0134 3.33285 17.7154 5.44117 19.5488M18.5588 19.5488C16.8031 21.0756 14.5095 22 12 22C9.49052 22 7.19694 21.0756 5.44117 19.5488M15 9C15 10.6569 13.6569 12 12 12C10.3431 12 9 10.6569 9 9C9 7.34315 10.3431 6 12 6C13.6569 6 15 7.34315 15 9Z" stroke-width="1.5" stroke-linejoin="round"/>
</symbol></svg>