<?xml version="1.0" encoding="utf-8"?><svg viewBox="0 0 24 27" xmlns="http://www.w3.org/2000/svg" xmlns:xlink="http://www.w3.org/1999/xlink"><style>:root>svg{display:none}:root>svg:target{display:block}</style><svg fill="none" viewBox="0 0 17 27" id="arrow_down" xmlns="http://www.w3.org/2000/svg"><path d="M8.389 2v23.611M15 19l-6.611 6.611-6.611-6.61" stroke="#000" style="stroke:#000;stroke-opacity:1" stroke-width="2.3" stroke-linecap="round" stroke-linejoin="round"/></svg><svg fill="none" viewBox="0 0 17 27" id="arrow_up" xmlns="http://www.w3.org/2000/svg"><path d="M8.389 25.611V2.001M1.778 8.611l6.61-6.61L15 8.61" stroke="#000" style="stroke:#000;stroke-opacity:1" stroke-width="2.3" stroke-linecap="round" stroke-linejoin="round"/></svg><svg fill="none" viewBox="0 0 21 20" id="basket" xmlns="http://www.w3.org/2000/svg"><path d="M7.545 18.182a.818.818 0 1 0 0-1.637.818.818 0 0 0 0 1.637ZM16.546 18.182a.818.818 0 1 0 0-1.637.818.818 0 0 0 0 1.637ZM1 1h3.273l2.192 10.956a1.636 1.636 0 0 0 1.637 1.317h7.953a1.636 1.636 0 0 0 1.636-1.317L19 5.09H8.5" stroke="#000" style="stroke:#000;stroke-opacity:1" stroke-width="2" stroke-linecap="round" stroke-linejoin="round"/><path d="M18.818 5.636a.818.818 0 1 0 0-1.636.818.818 0 0 0 0 1.636Z" stroke="#E27B3A" style="stroke:color(display-p3 .8863 .4824 .2275);stroke-opacity:1" stroke-width="2" stroke-linecap="round" stroke-linejoin="round"/></svg><svg fill="none" viewBox="0 0 16 17" id="dreeeble" xmlns="http://www.w3.org/2000/svg"><path d="m10.913 15.944.04-.014C19.104 12.695 16.849.5 8.008.5 3.57.5 0 4.113 0 8.499c0 5.55 5.628 9.51 10.913 7.445ZM3.524 13.87c.569-.954 2.408-3.647 5.549-4.576a16.828 16.828 0 0 1 1.162 5.836c-2.38.799-4.89.261-6.71-1.26Zm7.696.842a17.928 17.928 0 0 0-1.142-5.643c1.39-.217 2.998-.072 4.822.658a7.016 7.016 0 0 1-3.68 4.985Zm3.785-6.02c-2.009-.753-3.78-.847-5.312-.555a18.7 18.7 0 0 0-.749-1.518c2.351-.938 3.74-2.081 4.362-2.686a6.904 6.904 0 0 1 1.699 4.76Zm-2.41-5.471c-.565.538-1.898 1.624-4.177 2.513A18.71 18.71 0 0 0 5.35 2.026a6.971 6.971 0 0 1 7.246 1.195Zm-8.202-.706c.571.502 1.825 1.707 3.035 3.57-1.662.535-3.745.928-6.279.983a7.012 7.012 0 0 1 3.244-4.553Zm-3.37 5.557c2.835-.046 5.131-.493 6.945-1.098.251.439.49.917.718 1.415-3.16 1.005-5.134 3.6-5.89 4.772a6.903 6.903 0 0 1-1.774-5.089Z" fill="#211105" style="fill:color(display-p3 .1294 .0667 .0196);fill-opacity:1"/></svg><svg fill="none" viewBox="0 0 9 18" id="facebook" xmlns="http://www.w3.org/2000/svg"><path d="M7.357 3.323H9V.62A22.45 22.45 0 0 0 6.606.5C4.237.5 2.614 1.907 2.614 4.494v2.381H0v3.022h2.614V17.5H5.82V9.897h2.508l.398-3.021H5.82V4.794c0-.873.25-1.471 1.538-1.471Z" fill="#211105" style="fill:color(display-p3 .1294 .0667 .0196);fill-opacity:1"/></svg><svg fill="none" viewBox="0 0 19 19" id="search" xmlns="http://www.w3.org/2000/svg"><path d="M8.556 16.111a7.556 7.556 0 1 0 0-15.11 7.556 7.556 0 0 0 0 15.11ZM18 18l-4.108-4.108" stroke="#000" style="stroke:#000;stroke-opacity:1" stroke-width="2" stroke-linecap="round" stroke-linejoin="round"/></svg><svg fill="none" viewBox="0 0 15 13" id="twitter" xmlns="http://www.w3.org/2000/svg"><path d="M14.77 1.92c-.55.242-1.135.401-1.745.479A3.01 3.01 0 0 0 14.357.725a6.05 6.05 0 0 1-1.92.733 3.027 3.027 0 0 0-5.238 2.07c0 .24.02.471.07.691a8.57 8.57 0 0 1-6.24-3.167 3.032 3.032 0 0 0 .93 4.047A2.99 2.99 0 0 1 .59 4.726v.033a3.042 3.042 0 0 0 2.426 2.975c-.247.068-.515.1-.794.1-.194 0-.39-.011-.573-.052a3.057 3.057 0 0 0 2.829 2.11 6.084 6.084 0 0 1-3.754 1.29c-.249 0-.487-.01-.725-.04A8.524 8.524 0 0 0 4.645 12.5c5.572 0 8.618-4.615 8.618-8.616a7.68 7.68 0 0 0-.011-.391 6.04 6.04 0 0 0 1.517-1.572Z" fill="#211105" style="fill:color(display-p3 .1294 .0667 .0196);fill-opacity:1"/></svg><svg fill="none" viewBox="0 0 24 24" id="user" xmlns="http://www.w3.org/2000/svg"><path d="M18.559 19.549a7.003 7.003 0 0 0-13.118 0m13.118 0A9.976 9.976 0 0 0 22 12c0-5.523-4.477-10-10-10S2 6.477 2 12a9.977 9.977 0 0 0 3.441 7.549m13.118 0A9.961 9.961 0 0 1 12 22a9.961 9.961 0 0 1-6.559-2.451M15 9a3 3 0 1 1-6 0 3 3 0 0 1 6 0Z" stroke="#141718" stroke-width="1.5" stroke-linejoin="round"/></svg></svg>