<?xml version="1.0" encoding="utf-8"?><svg viewBox="0 0 24 24" xmlns="http://www.w3.org/2000/svg" xmlns:xlink="http://www.w3.org/1999/xlink"><style>:root>svg{display:none}:root>svg:target{display:block}</style><svg fill="none" viewBox="0 0 21 20" id="basket" xmlns="http://www.w3.org/2000/svg">
    <path d="M7.545 18.182a.818.818 0 1 0 0-1.637.818.818 0 0 0 0 1.637ZM16.546 18.182a.818.818 0 1 0 0-1.637.818.818 0 0 0 0 1.637ZM1 1h3.273l2.192 10.956a1.636 1.636 0 0 0 1.637 1.317h7.953a1.636 1.636 0 0 0 1.636-1.317L19 5.09H8.5" stroke="#000" style="stroke:#000;stroke-opacity:1" stroke-width="2" stroke-linecap="round" stroke-linejoin="round"/>
    <path d="M18.818 5.636a.818.818 0 1 0 0-1.636.818.818 0 0 0 0 1.636Z" stroke="#E27B3A" style="stroke:color(display-p3 .8863 .4824 .2275);stroke-opacity:1" stroke-width="2" stroke-linecap="round" stroke-linejoin="round"/>
</svg><svg fill="none" viewBox="0 0 19 19" id="search" xmlns="http://www.w3.org/2000/svg">
    <path d="M8.556 16.111a7.556 7.556 0 1 0 0-15.11 7.556 7.556 0 0 0 0 15.11ZM18 18l-4.108-4.108" stroke="#000" style="stroke:#000;stroke-opacity:1" stroke-width="2" stroke-linecap="round" stroke-linejoin="round"/>
</svg><svg fill="none" viewBox="0 0 24 24" id="user" xmlns="http://www.w3.org/2000/svg">
    <path d="M18.559 19.549a7.003 7.003 0 0 0-13.118 0m13.118 0A9.976 9.976 0 0 0 22 12c0-5.523-4.477-10-10-10S2 6.477 2 12a9.977 9.977 0 0 0 3.441 7.549m13.118 0A9.961 9.961 0 0 1 12 22a9.961 9.961 0 0 1-6.559-2.451M15 9a3 3 0 1 1-6 0 3 3 0 0 1 6 0Z" stroke="#141718" stroke-width="1.5" stroke-linejoin="round"/>
</svg></svg>